# xmcd CD database file
#
# Track frame offsets:
#	187
#	18222
#	33129
#	52687
#	71462
#	92389
#	111692
#	128577
#	149127
#	168134
#
# Disc length: 2484 seconds
#
# Revision: 3
# Processed by: cddbd v1.5PL3 Copyright (c) Steve Scherf et al.
# Submitted via: CDex 1.51
#
DISCID=7909b20a
DTITLE=GUN - Swagger
DYEAR=1994
DGENRE=Hard Rock
TTITLE0=Stand In Line
TTITLE1=Find My Way
TTITLE2=Word Up
TTITLE3=Don't Say It's Over
TTITLE4=The Only One
TTITLE5=Something Worthwhile
TTITLE6=Seems Like I'm Losing You
TTITLE7=Crying Over You
TTITLE8=One Reason
TTITLE9=Vicious Heart
EXTD=YEAR: 1994
EXTT0=
EXTT1=
EXTT2=
EXTT3=
EXTT4=
EXTT5=
EXTT6=
EXTT7=
EXTT8=
EXTT9=
PLAYORDER=
